#Comment line ignore any data following # character 
#Hierarchical Translation and Rotation (.htr) file 
[Header]	
#Header keywords are followed by a single value 
FileType HTR		#Single word string
DataType HTRS		#Translation followed by rotation and scale data
FileVersion 1		#integer
NumSegments 84		#integer
NumFrames 2		#integer
DataFrameRate 30		#integer, data frame rate in this file
EulerRotationOrder ZYX
CalibrationUnits mm
RotationUnits Degrees
GlobalAxisofGravity Y
BoneLengthAxis Y
ScaleFactor 1.00
[SegmentNames&Hierarchy]
#CHILD	PARENT
MASTER GLOBAL
root MASTER
chest root
L_mid_tent01 root
R_mid_tent01 root
spine01 root
Bip01_Neck chest
L_humerus chest
R_humerus chest
weapon_bone chest
Bip01_Head Bip01_Neck
eye_left_bone Bip01_Head
eye_right_bone Bip01_Head
L_forearm L_humerus
L_front_hand L_forearm
L_weapon_bone L_forearm
L_front_hand01_01 L_front_hand
L_front_hand02_01 L_front_hand
L_front_hand03_01 L_front_hand
L_front_hand01_02 L_front_hand01_01
L_front_hand02_02 L_front_hand02_01
L_front_hand03_02 L_front_hand03_01
R_forearm R_humerus
R_front_hand R_forearm
R_weapon_bone R_forearm
R_front_hand01_01 R_front_hand
R_front_hand02_01 R_front_hand
R_front_hand03_01 R_front_hand
R_front_hand01_02 R_front_hand01_01
R_front_hand02_02 R_front_hand02_01
R_front_hand03_02 R_front_hand03_01
null_rope01_connect L_mid_tent01
Rope1_Seg01 null_rope01_connect
Rope1_Seg02 Rope1_Seg01
Rope1_Seg03 Rope1_Seg02
Rope1_Seg04 Rope1_Seg03
Rope1_Seg05 Rope1_Seg04
Rope1_Seg06 Rope1_Seg05
Rope1_Seg07 Rope1_Seg06
Rope1_Seg09 Rope1_Seg07
L_mid_hand01 Rope1_Seg09
L_mid_hand02 Rope1_Seg09
L_mid_hand03 Rope1_Seg09
null_rope02_connect R_mid_tent01
Rope2_Seg01 null_rope02_connect
Rope2_Seg02 Rope2_Seg01
Rope2_Seg03 Rope2_Seg02
Rope2_Seg04 Rope2_Seg03
Rope2_Seg05 Rope2_Seg04
Rope2_Seg06 Rope2_Seg05
Rope2_Seg07 Rope2_Seg06
Rope2_Seg09 Rope2_Seg07
R_mid_hand01 Rope2_Seg09
R_mid_hand02 Rope2_Seg09
R_mid_hand03 Rope2_Seg09
spine02 spine01
spine03 spine02
pelvis spine03
null_rope03_connect pelvis
null_rope04_connect pelvis
Rope3_Seg01 null_rope03_connect
Rope3_Seg02 Rope3_Seg01
Rope3_Seg03 Rope3_Seg02
Rope3_Seg04 Rope3_Seg03
Rope3_Seg05 Rope3_Seg04
Rope3_Seg06 Rope3_Seg05
Rope3_Seg07 Rope3_Seg06
Rope3_Seg08 Rope3_Seg07
Rope3_Seg09 Rope3_Seg08
R_rear_hand01 Rope3_Seg09
R_rear_hand02 Rope3_Seg09
R_rear_hand03 Rope3_Seg09
Rope4_Seg01 null_rope04_connect
Rope4_Seg02 Rope4_Seg01
Rope4_Seg03 Rope4_Seg02
Rope4_Seg04 Rope4_Seg03
Rope4_Seg05 Rope4_Seg04
Rope4_Seg06 Rope4_Seg05
Rope4_Seg07 Rope4_Seg06
Rope4_Seg08 Rope4_Seg07
Rope4_Seg09 Rope4_Seg08
L_rear_hand01 Rope4_Seg09
L_rear_hand02 Rope4_Seg09
L_rear_hand03 Rope4_Seg09
[BasePosition]
#SegmentName Tx, Ty, Tz, Rx, Ry, Rz, BoneLength
MASTER 0.000000 0.000000 0.000000 -90.000000 0.000000 0.000000 10.000000 
root 0.000000 0.000000 0.000000 0.000000 0.000000 0.000000 10.000000 
chest 0.000000 0.000000 0.000000 0.000000 0.000000 0.000000 10.000000 
L_mid_tent01 0.000000 0.000000 0.000000 0.000000 0.000000 0.000000 10.000000 
R_mid_tent01 0.000000 0.000000 0.000000 0.000000 0.000000 0.000000 10.000000 
spine01 0.000000 0.000000 0.000000 0.000000 0.000000 0.000000 10.000000 
Bip01_Neck 0.000000 0.000000 0.000000 0.000000 0.000000 0.000000 10.000000 
L_humerus 0.000000 0.000000 0.000000 0.000000 0.000000 0.000000 10.000000 
R_humerus 0.000000 0.000000 0.000000 0.000000 0.000000 0.000000 10.000000 
weapon_bone 0.000000 0.000000 0.000000 0.000000 0.000000 0.000000 10.000000 
Bip01_Head 0.000000 0.000000 0.000000 0.000000 0.000000 0.000000 10.000000 
eye_left_bone 0.000000 0.000000 0.000000 0.000000 0.000000 0.000000 10.000000 
eye_right_bone 0.000000 0.000000 0.000000 0.000000 0.000000 0.000000 10.000000 
L_forearm 0.000000 0.000000 0.000000 0.000000 0.000000 0.000000 10.000000 
L_front_hand 0.000000 0.000000 0.000000 0.000000 0.000000 0.000000 10.000000 
L_weapon_bone 0.000000 0.000000 0.000000 0.000000 0.000000 0.000000 10.000000 
L_front_hand01_01 0.000000 0.000000 0.000000 0.000000 0.000000 0.000000 10.000000 
L_front_hand02_01 0.000000 0.000000 0.000000 0.000000 0.000000 0.000000 10.000000 
L_front_hand03_01 0.000000 0.000000 0.000000 0.000000 0.000000 0.000000 10.000000 
L_front_hand01_02 0.000000 0.000000 0.000000 0.000000 0.000000 0.000000 10.000000 
L_front_hand02_02 0.000000 0.000000 0.000000 0.000000 0.000000 0.000000 10.000000 
L_front_hand03_02 0.000000 0.000000 0.000000 0.000000 0.000000 0.000000 10.000000 
R_forearm 0.000000 0.000000 0.000000 0.000000 0.000000 0.000000 10.000000 
R_front_hand 0.000000 0.000000 0.000000 0.000000 0.000000 0.000000 10.000000 
R_weapon_bone 0.000000 0.000000 0.000000 0.000000 0.000000 0.000000 10.000000 
R_front_hand01_01 0.000000 0.000000 0.000000 0.000000 0.000000 0.000000 10.000000 
R_front_hand02_01 0.000000 0.000000 0.000000 0.000000 0.000000 0.000000 10.000000 
R_front_hand03_01 0.000000 0.000000 0.000000 0.000000 0.000000 0.000000 10.000000 
R_front_hand01_02 0.000000 0.000000 0.000000 0.000000 0.000000 0.000000 10.000000 
R_front_hand02_02 0.000000 0.000000 0.000000 0.000000 0.000000 0.000000 10.000000 
R_front_hand03_02 0.000000 0.000000 0.000000 0.000000 0.000000 0.000000 10.000000 
null_rope01_connect 0.000000 0.000000 0.000000 0.000000 0.000000 0.000000 10.000000 
Rope1_Seg01 0.000000 0.000000 0.000000 0.000000 0.000000 0.000000 10.000000 
Rope1_Seg02 0.000000 0.000000 0.000000 0.000000 0.000000 0.000000 10.000000 
Rope1_Seg03 0.000000 0.000000 0.000000 0.000000 0.000000 0.000000 10.000000 
Rope1_Seg04 0.000000 0.000000 0.000000 0.000000 0.000000 0.000000 10.000000 
Rope1_Seg05 0.000000 0.000000 0.000000 0.000000 0.000000 0.000000 10.000000 
Rope1_Seg06 0.000000 0.000000 0.000000 0.000000 0.000000 0.000000 10.000000 
Rope1_Seg07 0.000000 0.000000 0.000000 0.000000 0.000000 0.000000 10.000000 
Rope1_Seg09 0.000000 0.000000 0.000000 0.000000 0.000000 0.000000 10.000000 
L_mid_hand01 0.000000 0.000000 0.000000 0.000000 0.000000 0.000000 10.000000 
L_mid_hand02 0.000000 0.000000 0.000000 0.000000 0.000000 0.000000 10.000000 
L_mid_hand03 0.000000 0.000000 0.000000 0.000000 0.000000 0.000000 10.000000 
null_rope02_connect 0.000000 0.000000 0.000000 0.000000 0.000000 0.000000 10.000000 
Rope2_Seg01 0.000000 0.000000 0.000000 0.000000 0.000000 0.000000 10.000000 
Rope2_Seg02 0.000000 0.000000 0.000000 0.000000 0.000000 0.000000 10.000000 
Rope2_Seg03 0.000000 0.000000 0.000000 0.000000 0.000000 0.000000 10.000000 
Rope2_Seg04 0.000000 0.000000 0.000000 0.000000 0.000000 0.000000 10.000000 
Rope2_Seg05 0.000000 0.000000 0.000000 0.000000 0.000000 0.000000 10.000000 
Rope2_Seg06 0.000000 0.000000 0.000000 0.000000 0.000000 0.000000 10.000000 
Rope2_Seg07 0.000000 0.000000 0.000000 0.000000 0.000000 0.000000 10.000000 
Rope2_Seg09 0.000000 0.000000 0.000000 0.000000 0.000000 0.000000 10.000000 
R_mid_hand01 0.000000 0.000000 0.000000 0.000000 0.000000 0.000000 10.000000 
R_mid_hand02 0.000000 0.000000 0.000000 0.000000 0.000000 0.000000 10.000000 
R_mid_hand03 0.000000 0.000000 0.000000 0.000000 0.000000 0.000000 10.000000 
spine02 0.000000 0.000000 0.000000 0.000000 0.000000 0.000000 10.000000 
spine03 0.000000 0.000000 0.000000 0.000000 0.000000 0.000000 10.000000 
pelvis 0.000000 0.000000 0.000000 0.000000 0.000000 0.000000 10.000000 
null_rope03_connect 0.000000 0.000000 0.000000 0.000000 0.000000 0.000000 10.000000 
null_rope04_connect 0.000000 0.000000 0.000000 0.000000 0.000000 0.000000 10.000000 
Rope3_Seg01 0.000000 0.000000 0.000000 0.000000 0.000000 0.000000 10.000000 
Rope3_Seg02 0.000000 0.000000 0.000000 0.000000 0.000000 0.000000 10.000000 
Rope3_Seg03 0.000000 0.000000 0.000000 0.000000 0.000000 0.000000 10.000000 
Rope3_Seg04 0.000000 0.000000 0.000000 0.000000 0.000000 0.000000 10.000000 
Rope3_Seg05 0.000000 0.000000 0.000000 0.000000 0.000000 0.000000 10.000000 
Rope3_Seg06 0.000000 0.000000 0.000000 0.000000 0.000000 0.000000 10.000000 
Rope3_Seg07 0.000000 0.000000 0.000000 0.000000 0.000000 0.000000 10.000000 
Rope3_Seg08 0.000000 0.000000 0.000000 0.000000 0.000000 0.000000 10.000000 
Rope3_Seg09 0.000000 0.000000 0.000000 0.000000 0.000000 0.000000 10.000000 
R_rear_hand01 0.000000 0.000000 0.000000 0.000000 0.000000 0.000000 10.000000 
R_rear_hand02 0.000000 0.000000 0.000000 0.000000 0.000000 0.000000 10.000000 
R_rear_hand03 0.000000 0.000000 0.000000 0.000000 0.000000 0.000000 10.000000 
Rope4_Seg01 0.000000 0.000000 0.000000 0.000000 0.000000 0.000000 10.000000 
Rope4_Seg02 0.000000 0.000000 0.000000 0.000000 0.000000 0.000000 10.000000 
Rope4_Seg03 0.000000 0.000000 0.000000 0.000000 0.000000 0.000000 10.000000 
Rope4_Seg04 0.000000 0.000000 0.000000 0.000000 0.000000 0.000000 10.000000 
Rope4_Seg05 0.000000 0.000000 0.000000 0.000000 0.000000 0.000000 10.000000 
Rope4_Seg06 0.000000 0.000000 0.000000 0.000000 0.000000 0.000000 10.000000 
Rope4_Seg07 0.000000 0.000000 0.000000 0.000000 0.000000 0.000000 10.000000 
Rope4_Seg08 0.000000 0.000000 0.000000 0.000000 0.000000 0.000000 10.000000 
Rope4_Seg09 0.000000 0.000000 0.000000 0.000000 0.000000 0.000000 10.000000 
L_rear_hand01 0.000000 0.000000 0.000000 0.000000 0.000000 0.000000 10.000000 
L_rear_hand02 0.000000 0.000000 0.000000 0.000000 0.000000 0.000000 10.000000 
L_rear_hand03 0.000000 0.000000 0.000000 0.000000 0.000000 0.000000 10.000000 
#Beginning of Data. Separated by tabs
#Fr	Tx	Ty	Tz	Rx	Ry	Rz	SF
[MASTER]
3 -0.000022 198.763458 91.122505 0.001660 0.001660 0.001660 218.655487
4 -0.000035 297.043823 127.863121 0.001660 0.001660 0.001660 323.394531
[root]
3 -18.346483 71.291557 1303.378052 -90.977043 -7.173221 -89.969566 1305.455322
4 -20.193687 128.795685 1197.557129 -90.216736 -5.302767 -90.455170 1204.632324
[chest]
3 -84.512650 -34.090519 0.000000 -1.926816 -0.061662 179.079346 91.129311
4 -84.512650 -34.090519 0.000000 -1.746543 -0.059510 -172.749619 91.129311
[L_mid_tent01]
3 27.299107 22.179098 -249.918701 -15.581330 13.876688 26.881458 252.381683
4 27.299101 22.179094 -249.918701 -12.898906 14.336631 33.899879 252.381683
[R_mid_tent01]
3 23.228794 24.509907 226.238495 -172.935013 -16.957607 35.962658 228.744751
4 23.228794 24.509907 226.238495 -176.968170 -15.527499 42.142723 228.744751
[spine01]
3 -0.361383 -0.195265 0.000000 0.001967 0.001280 23.878773 0.410763
4 -0.361383 -0.195265 0.000000 0.001980 0.001260 25.057901 0.410763
[Bip01_Neck]
3 165.484543 71.581718 0.000119 176.643677 -1.657967 43.431911 180.302734
4 165.484543 71.581718 0.000119 176.643677 -1.657967 43.431911 180.302734
[L_humerus]
3 -13.983130 -135.272980 -120.471481 3.631898 76.038254 90.751770 181.680161
4 -13.983130 -135.272980 -120.471481 16.716553 80.866966 102.097694 181.680161
[R_humerus]
3 -13.983309 -135.273102 125.287651 25.507198 -77.827026 67.151329 184.909012
4 -13.983309 -135.273102 125.287651 24.156124 -83.496452 66.678955 184.909012
[weapon_bone]
3 235.964890 -300.705902 0.000000 0.000000 -89.951546 -128.212341 382.234833
4 235.964890 -300.705902 0.000000 0.000000 -89.951546 -128.212341 382.234833
[Bip01_Head]
3 213.441467 185.723480 11.674414 4.964075 2.979889 -43.898029 283.172668
4 213.440094 185.727493 11.623149 4.965800 3.214979 -43.890377 283.172150
[eye_left_bone]
3 -24.626970 125.451866 -64.772606 0.000000 -90.000000 -99.840431 143.318359
4 -24.626970 125.451866 -64.772606 0.000000 -90.000000 -99.840431 143.318359
[eye_right_bone]
3 -24.626970 125.451866 64.327362 0.000000 -89.965736 80.156380 143.117676
4 -24.626970 125.451866 64.327362 0.000000 -89.965736 80.156380 143.117676
[L_forearm]
3 322.776093 0.000000 -0.000119 0.000407 -0.002312 -109.976456 322.776093
4 322.776093 0.000000 -0.000119 0.000412 -0.002311 -110.211792 322.776093
[L_front_hand]
3 241.149185 -0.042021 -3.300071 -178.667953 -1.835447 -27.422350 241.171753
4 241.149185 -0.042021 -3.300071 -178.667953 -1.835447 -27.422350 241.171753
[L_weapon_bone]
3 156.183838 0.000000 0.000000 0.000014 0.000007 0.000001 156.183838
4 156.183838 0.000000 0.000000 0.000014 0.000007 0.000001 156.183838
[L_front_hand01_01]
3 86.095154 20.947098 -0.655860 -0.366594 -0.477154 75.385574 88.609184
4 86.095154 20.947098 -0.655860 -0.365371 -0.478091 75.092094 88.609184
[L_front_hand02_01]
3 86.935165 -11.437475 24.513514 154.399796 -59.883835 -61.369587 91.046425
4 86.935165 -11.437475 24.513514 153.946487 -59.758568 -60.843468 91.046425
[L_front_hand03_01]
3 86.637497 -14.123976 -20.424902 -153.913849 58.118122 -62.702866 90.126129
4 86.637497 -14.123976 -20.424902 -153.504349 57.989803 -62.217342 90.126129
[L_front_hand01_02]
3 71.020905 -0.000179 0.000030 0.000320 -0.002325 -105.686226 71.020905
4 71.020905 -0.000179 0.000030 0.000320 -0.002325 -105.648979 71.020905
[L_front_hand02_02]
3 71.020927 -0.000119 0.000060 0.000320 -0.002325 -105.686226 71.020927
4 71.020927 -0.000119 0.000060 0.000320 -0.002325 -105.648979 71.020927
[L_front_hand03_02]
3 71.020905 -0.000060 0.000060 0.000320 -0.002325 -105.686226 71.020905
4 71.020905 -0.000060 0.000060 0.000320 -0.002325 -105.648979 71.020905
[R_forearm]
3 322.776428 -0.000060 0.000030 0.201781 0.066147 -108.624001 322.776428
4 322.776428 -0.000060 0.000030 0.201644 0.066564 -108.861320 322.776428
[R_front_hand]
3 238.847015 -0.006795 2.210259 -2.635298 -10.645461 -26.312506 238.857239
4 238.847015 -0.006795 2.210259 -2.635298 -10.645461 -26.312506 238.857239
[R_weapon_bone]
3 155.664093 0.002503 -0.000030 0.003487 0.001180 -90.988930 155.664078
4 155.664093 0.002503 -0.000030 0.003487 0.001180 -90.988930 155.664078
[R_front_hand01_01]
3 87.624611 14.231146 22.918642 -154.633499 -59.950619 61.746044 91.683487
4 87.624611 14.231146 22.918642 -154.238968 -59.839840 61.284889 91.683487
[R_front_hand02_01]
3 89.356956 14.367283 -19.491137 154.602661 58.302849 63.744389 92.579636
4 89.356956 14.367283 -19.491137 154.231567 58.196690 63.311184 92.579636
[R_front_hand03_01]
3 87.286232 -22.307278 -0.143439 0.162155 -0.423168 -75.767921 90.091743
4 87.286232 -22.307278 -0.143439 0.161230 -0.423521 -75.517479 90.091743
[R_front_hand01_02]
3 71.020905 0.000060 0.000119 0.002323 -0.000334 106.381714 71.020905
4 71.020905 0.000060 0.000119 0.002323 -0.000334 106.381714 71.020905
[R_front_hand02_02]
3 71.020844 -0.000030 -0.000119 0.002323 -0.000334 106.381714 71.020836
4 71.020844 -0.000030 -0.000119 0.002323 -0.000334 106.381714 71.020836
[R_front_hand03_02]
3 71.020905 0.000000 0.000030 0.002323 -0.000334 106.381714 71.020905
4 71.020905 0.000000 0.000030 0.002323 -0.000334 106.381714 71.020905
[null_rope01_connect]
3 328.732483 0.000000 -0.000238 -159.677704 -68.307762 -131.881927 328.732483
4 328.732483 0.000000 -0.000238 -160.300888 -70.446648 -139.991440 328.732483
[Rope1_Seg01]
3 0.000002 -0.000052 -0.000016 5.808611 15.493976 -110.873604 0.000054
4 0.000003 -0.000059 -0.000023 -98.053658 37.676533 -110.750320 0.000063
[Rope1_Seg02]
3 139.999863 -0.000179 0.000000 -1.911651 -4.589277 6.056045 139.999863
4 139.999863 -0.000179 0.000000 75.159447 -8.605904 -21.127815 139.999863
[Rope1_Seg03]
3 139.999924 0.000060 -0.000060 0.607633 -2.265445 2.131702 139.999924
4 139.999924 0.000060 -0.000060 11.391413 -8.577196 0.819304 139.999924
[Rope1_Seg04]
3 139.999924 -0.000060 -0.000119 -1.158319 -1.956867 3.019462 139.999924
4 139.999924 -0.000060 -0.000119 3.443257 -4.155354 1.466086 139.999924
[Rope1_Seg05]
3 139.999832 0.000119 -0.000060 -2.178615 -2.081533 4.207873 139.999832
4 139.999832 0.000119 -0.000060 1.875291 -3.245942 1.635959 139.999832
[Rope1_Seg06]
3 139.999954 0.000119 -0.000060 -1.130705 -1.563330 2.851658 139.999954
4 139.999954 0.000119 -0.000060 1.380931 -2.911706 1.604289 139.999954
[Rope1_Seg07]
3 139.999985 0.000060 0.000000 -0.528895 -1.053725 1.752514 139.999985
4 139.999985 0.000060 0.000000 0.981331 -2.254740 1.248763 139.999985
[Rope1_Seg09]
3 121.602913 0.000119 -0.000089 -89.793175 -1.359789 0.847147 121.602913
4 121.602913 0.000119 -0.000089 -89.793175 -1.359789 0.847147 121.602913
[L_mid_hand01]
3 103.859421 1.038730 8.195221 124.165955 -63.799015 -31.873352 104.187431
4 103.859421 1.038730 8.195221 119.391953 -59.659550 -26.459229 104.187431
[L_mid_hand02]
3 105.572853 -4.139662 -10.864139 -164.626358 42.318848 -67.191460 106.211075
4 105.572853 -4.139662 -10.864139 -160.502609 40.861904 -60.979630 106.211075
[L_mid_hand03]
3 104.641464 17.579376 -3.913581 -7.501869 17.251593 69.949562 106.179977
4 104.641464 17.579376 -3.913581 -8.971709 16.553080 64.913109 106.179977
[null_rope02_connect]
3 328.732849 0.000179 -0.000119 -140.135773 72.479263 -20.204407 328.732849
4 328.732849 0.000179 -0.000119 -138.781036 74.663628 -11.561781 328.732849
[Rope2_Seg01]
3 0.000078 0.000093 0.000000 155.936615 30.238857 -55.313343 0.000121
4 0.000079 0.000082 0.000000 -164.802872 56.558018 -48.430779 0.000114
[Rope2_Seg02]
3 139.999741 -0.000060 -0.000119 -62.036690 14.578976 18.780979 139.999756
4 139.999741 -0.000060 -0.000119 -69.311584 40.268242 13.953951 139.999756
[Rope2_Seg03]
3 140.000107 0.000030 0.000000 -13.684672 -0.999793 8.832452 140.000107
4 140.000107 0.000030 0.000000 -22.997458 2.667898 13.742148 140.000107
[Rope2_Seg04]
3 139.999802 0.000000 -0.000060 3.438275 -6.841675 0.371062 139.999802
4 139.999802 0.000000 -0.000060 -1.945217 -4.920766 3.695107 139.999802
[Rope2_Seg05]
3 139.999985 -0.000060 0.000119 6.949509 -9.718207 -2.549135 139.999985
4 139.999985 -0.000060 0.000119 3.130376 -8.423168 0.416020 139.999985
[Rope2_Seg06]
3 139.999893 -0.000030 -0.000119 2.504927 -6.181148 -0.401128 139.999893
4 139.999893 -0.000030 -0.000119 1.971552 -7.952037 0.762092 139.999893
[Rope2_Seg07]
3 139.999893 0.000060 -0.000060 1.031035 -3.838378 0.145261 139.999893
4 139.999893 0.000060 -0.000060 0.387836 -4.747386 1.312209 139.999893
[Rope2_Seg09]
3 121.338966 0.000089 -0.000060 33.793236 -1.359788 -0.847141 121.338966
4 121.338966 0.000089 -0.000060 33.793236 -1.359788 -0.847141 121.338966
[R_mid_hand01]
3 104.680779 11.144459 -10.335981 -18.237753 44.607113 67.592667 105.778534
4 104.680779 11.144459 -10.335981 -20.399712 43.830379 64.493820 105.778534
[R_mid_hand02]
3 104.070427 2.443552 8.231699 52.237907 -66.108360 35.844143 104.424065
4 104.070427 2.443552 8.231699 55.242668 -64.206009 32.532043 104.424065
[R_mid_hand03]
3 106.028137 -11.221827 -5.996406 -176.510086 15.433296 -74.380737 106.788818
4 106.028137 -11.221827 -5.996406 -175.861618 15.275426 -71.940247 106.788818
[spine02]
3 129.756927 0.001550 0.000119 -0.101519 -4.056908 -6.456333 129.756927
4 129.756927 0.001550 0.000119 -0.499306 -4.028634 -0.812168 129.756927
[spine03]
3 78.614075 0.081498 -4.899007 1.927176 3.815892 16.974005 78.766609
4 78.614075 0.081505 -4.899008 1.943974 3.810873 17.184675 78.766609
[pelvis]
3 169.435242 0.051022 0.000000 -0.062063 -0.179681 15.105099 169.435257
4 169.435242 0.051022 0.000000 -0.062727 -0.179450 15.529262 169.435257
[null_rope03_connect]
3 -1.257226 -2.466202 137.391083 0.000000 -89.648895 47.719147 137.418976
4 -1.257226 -2.466202 137.391083 0.000000 -89.436638 38.420139 137.418976
[null_rope04_connect]
3 -1.259640 -2.480268 -137.844437 0.000000 -89.648895 47.719147 137.872513
4 -1.259640 -2.480268 -137.844437 0.000000 -89.436638 38.420139 137.872513
[Rope3_Seg01]
3 -0.000029 -0.000036 0.000016 -137.726776 23.701180 -93.925346 0.000049
4 -0.000029 -0.000035 0.000023 -139.788651 24.977850 -98.181618 0.000051
[Rope3_Seg02]
3 139.999924 -0.000119 0.000060 0.014027 -5.179577 -5.967312 139.999924
4 139.999924 -0.000119 0.000060 0.212803 -5.805856 -7.675669 139.999924
[Rope3_Seg03]
3 139.999924 -0.000119 0.000119 0.286650 -6.277085 -7.359624 139.999924
4 139.999924 -0.000119 0.000119 0.459055 -7.120729 -9.089653 139.999924
[Rope3_Seg04]
3 139.999924 0.000119 0.000000 0.530473 -6.946099 -8.207994 139.999924
4 139.999924 0.000119 0.000000 0.727628 -7.924378 -9.881872 139.999924
[Rope3_Seg05]
3 139.999924 -0.000238 0.000060 0.326132 4.710802 5.714748 139.999924
4 139.999924 -0.000238 0.000060 0.234656 5.543020 5.218826 139.999924
[Rope3_Seg06]
3 139.999893 -0.000119 -0.000060 1.134419 7.424394 8.936102 139.999893
4 139.999893 -0.000119 -0.000060 1.563720 9.800689 10.286092 139.999893
[Rope3_Seg07]
3 139.999771 0.000060 -0.000119 0.734683 3.032165 3.569044 139.999771
4 139.999771 0.000060 -0.000119 1.004236 4.217973 4.092906 139.999771
[Rope3_Seg08]
3 139.999985 -0.000060 0.000000 0.681715 1.917844 2.204490 139.999985
4 139.999985 -0.000060 0.000000 0.878998 2.614874 2.450938 139.999985
[Rope3_Seg09]
3 90.185997 -0.000179 -0.000060 89.793228 -1.359877 -0.847183 90.185997
4 90.185997 -0.000179 -0.000060 89.793228 -1.359877 -0.847183 90.185997
[R_rear_hand01]
3 103.366196 -6.073594 -10.757982 -176.465668 24.425859 -70.909309 104.101845
4 103.366196 -6.073594 -10.757982 -175.114853 24.208797 -67.632149 104.101845
[R_rear_hand02]
3 100.509819 12.039542 -7.992327 -14.843726 36.213379 68.859123 101.543350
4 100.509819 12.039542 -7.992327 -16.923939 35.395069 65.303368 101.543350
[R_rear_hand03]
3 101.539970 5.215704 5.435467 73.787918 -69.202950 19.069901 101.819031
4 101.539970 5.215704 5.435467 75.730560 -66.314209 16.974052 101.819031
[Rope4_Seg01]
3 0.000010 0.000036 -0.000145 57.444187 41.398922 -94.193634 0.000150
4 0.000010 0.000035 -0.000141 68.951012 42.916981 -77.991402 0.000145
[Rope4_Seg02]
3 139.999985 0.000060 0.000119 -1.445180 -4.220444 3.520051 139.999985
4 139.999985 0.000060 0.000119 -2.858454 -7.689308 2.787248 139.999985
[Rope4_Seg03]
3 139.999924 0.000000 -0.000238 -1.783857 -6.261020 4.994954 139.999924
4 139.999924 0.000000 -0.000238 -2.879790 -11.416444 3.551577 139.999924
[Rope4_Seg04]
3 139.999985 0.000000 0.000119 -3.586377 -18.017881 12.822848 139.999985
4 139.999985 0.000000 0.000119 -1.575959 -27.556564 4.498838 139.999985
[Rope4_Seg05]
3 139.999802 -0.000060 -0.000119 0.100228 -1.034737 2.780619 139.999802
4 139.999802 -0.000060 -0.000119 0.977670 -3.277470 4.829020 139.999802
[Rope4_Seg06]
3 139.999924 0.000000 0.000060 0.108799 12.340933 -6.421985 139.999924
4 139.999924 0.000000 0.000060 0.204759 17.497358 2.034874 139.999924
[Rope4_Seg07]
3 139.999802 0.000000 0.000000 0.453657 2.697216 -1.184876 139.999802
4 139.999802 0.000000 0.000000 0.330786 4.742909 1.134074 139.999802
[Rope4_Seg08]
3 139.999924 0.000000 0.000119 -1.242904 1.439035 -0.637198 139.999924
4 139.999924 0.000000 0.000119 -1.355789 2.289567 0.642418 139.999924
[Rope4_Seg09]
3 90.185791 0.000060 0.000060 -135.617828 2.228885 0.850567 90.185791
4 90.185791 0.000060 0.000060 -135.617828 2.228885 0.850567 90.185791
[L_rear_hand01]
3 101.696655 -8.392275 -7.654577 -18.919888 -34.466518 118.185951 102.329041
4 101.696655 -8.392275 -7.654577 -23.837845 -31.499460 127.199913 102.329041
[L_rear_hand02]
3 102.726799 -1.568258 5.773216 77.226944 63.386848 164.679077 102.900848
4 102.726799 -1.568258 5.773216 79.944244 55.427822 167.828537 102.900848
[L_rear_hand03]
3 104.552910 9.721220 -10.420293 -173.780411 -23.916803 -115.646591 105.519653
4 104.552910 9.721220 -10.420293 -170.300720 -22.790039 -124.406273 105.519653
